<svg xmlns="http://www.w3.org/2000/svg" width="781" height="504" viewBox="0 0 781 504"><defs><style type="text/css"/></defs><g transform="translate(128.09401968898237 264.8679648858432) scale(1)"><g class="relationship"><g transform="translate(-74.09401968898237 16.282232521504) rotate(0)" stroke-width="5" stroke="#000000"><path d="M 59 0 L 252.23186907123406 0"/><polygon points="-24.8621506177483,0 -27.62461179749811,9.20820393249937 0,0 -27.62461179749811,-9.20820393249937" fill="#000000" transform="translate(277.09401968898237 0) rotate(0)" stroke="none"/></g><g transform="translate(81.52191484663467 16.282232521504) rotate(0) translate(0 -13)"><g transform="translate(0 0)"><g transform="translate(-31.23828125 0)" fill="#ffffff" stroke="#000000" stroke-width="0"><rect x="0" y="0" width="62.4765625" height="26" rx="5" ry="5" stroke="none"/><text xml:space="preserve" x="5" y="18" stroke="none" text-anchor="left" font-family="sans-serif" font-size="16" font-weight="normal" fill="#000000">release</text></g></g></g></g><g class="relationship"><g transform="translate(262 16.282232521504) rotate(-30.000000000000004)" stroke-width="5" stroke="#000000"><path d="M 59 0 L 231.13863290812478 0"/><polygon points="-24.8621506177483,0 -27.62461179749811,9.20820393249937 0,0 -27.62461179749811,-9.20820393249937" fill="#000000" transform="translate(256.0007835258731 0) rotate(0)" stroke="none"/></g><g transform="translate(387.6337133588619 -56.2524257055272) rotate(-30.000000000000004) translate(0 -13)"><g transform="translate(0 0)"><g transform="translate(-29.0234375 0)" fill="#ffffff" stroke="#000000" stroke-width="0"><rect x="0" y="0" width="58.046875" height="26" rx="5" ry="5" stroke="none"/><text xml:space="preserve" x="5" y="18" stroke="none" text-anchor="left" font-family="sans-serif" font-size="16" font-weight="normal" fill="#000000">upload</text></g></g></g></g><g class="relationship"><g transform="translate(262 16.282232521504) rotate(0)" stroke-width="5" stroke="#000000"><path d="M 59 0 L 252.23186907123406 0"/><polygon points="-24.8621506177483,0 -27.62461179749811,9.20820393249937 0,0 -27.62461179749811,-9.20820393249937" fill="#000000" transform="translate(277.09401968898237 0) rotate(0)" stroke="none"/></g><g transform="translate(417.61593453561704 16.282232521504) rotate(0) translate(0 -13)"><g transform="translate(0 0)"><g transform="translate(-29.0234375 0)" fill="#ffffff" stroke="#000000" stroke-width="0"><rect x="0" y="0" width="58.046875" height="26" rx="5" ry="5" stroke="none"/><text xml:space="preserve" x="5" y="18" stroke="none" text-anchor="left" font-family="sans-serif" font-size="16" font-weight="normal" fill="#000000">upload</text></g></g></g></g><g class="relationship"><g transform="translate(262 16.282232521504) rotate(-90)" stroke-width="5" stroke="#000000"><path d="M 59 0 L 143.28804678959892 0"/><polygon points="-24.8621506177483,0 -27.62461179749811,9.20820393249937 0,0 -27.62461179749811,-9.20820393249937" fill="#000000" transform="translate(168.1501974073472 0) rotate(0)" stroke="none"/></g><g transform="translate(262 -84.86179087329546) rotate(90) translate(0 -13)"><g transform="translate(0 0)"><g transform="translate(-16.11328125 0)" fill="#ffffff" stroke="#000000" stroke-width="0"><rect x="0" y="0" width="32.2265625" height="26" rx="5" ry="5" stroke="none"/><text xml:space="preserve" x="5" y="18" stroke="none" text-anchor="left" font-family="sans-serif" font-size="16" font-weight="normal" fill="#000000">isA</text></g></g></g></g><g class="relationship"><g transform="translate(-74.09401968898237 16.282232521504) rotate(-90)" stroke-width="5" stroke="#000000"><path d="M 59 0 L 143.28804678959892 0"/><polygon points="-24.8621506177483,0 -27.62461179749811,9.20820393249937 0,0 -27.62461179749811,-9.20820393249937" fill="#000000" transform="translate(168.1501974073472 0) rotate(0)" stroke="none"/></g><g transform="translate(-74.09401968898237 -84.86179087329546) rotate(90) translate(0 -13)"><g transform="translate(0 0)"><g transform="translate(-34.796875 0)" fill="#ffffff" stroke="#000000" stroke-width="0"><rect x="0" y="0" width="69.59375" height="26" rx="5" ry="5" stroke="none"/><text xml:space="preserve" x="5" y="18" stroke="none" text-anchor="left" font-family="sans-serif" font-size="16" font-weight="normal" fill="#000000">contains</text></g></g></g></g><g class="relationship"><g transform="translate(262 16.282232521504) rotate(29.999999999999996)" stroke-width="5" stroke="#000000"><path d="M 59 0 L 252.23186907123412 0"/><polygon points="-24.8621506177483,0 -27.62461179749811,9.20820393249937 0,0 -27.62461179749811,-9.20820393249937" fill="#000000" transform="translate(277.0940196889824 0) rotate(0)" stroke="none"/></g><g transform="translate(396.76735254150054 94.0901997893125) rotate(29.999999999999996) translate(0 -13)"><g transform="translate(0 0)"><g transform="translate(-21.8984375 0)" fill="#ffffff" stroke="#000000" stroke-width="0"><rect x="0" y="0" width="43.796875" height="26" rx="5" ry="5" stroke="none"/><text xml:space="preserve" x="5" y="18" stroke="none" text-anchor="left" font-family="sans-serif" font-size="16" font-weight="normal" fill="#000000">copy</text></g></g></g></g><g class="relationship"><g transform="translate(262 16.282232521504) rotate(-145.94708244170994)" stroke-width="5" stroke="#000000"><path d="M 59 0 L 321.79337104181803 0"/><polygon points="-24.8621506177483,0 -27.62461179749811,9.20820393249937 0,0 -27.62461179749811,-9.20820393249937" fill="#000000" transform="translate(346.6555216595663 0) rotate(0)" stroke="none"/></g><g transform="translate(104.25239407468493 -90.33198173803751) rotate(34.05291755829007) translate(0 -13)"><g transform="translate(0 0)"><g transform="translate(-34.796875 0)" fill="#ffffff" stroke="#000000" stroke-width="0"><rect x="0" y="0" width="69.59375" height="26" rx="5" ry="5" stroke="none"/><text xml:space="preserve" x="5" y="18" stroke="none" text-anchor="left" font-family="sans-serif" font-size="16" font-weight="normal" fill="#000000">contains</text></g></g></g></g><g class="node"><g fill="#ffffff" stroke="#000000" stroke-width="4"><circle cx="-74.09401968898237" cy="16.282232521504" r="52"/></g><g transform="translate(-74.09401968898237 16.282232521504)"><g transform="scale(0.4765630234375) translate(0 0)"><g transform="translate(0 0)"><g font-family="sans-serif" font-size="50" font-weight="normal" fill="#000000" text-anchor="middle"><text xml:space="preserve" x="0" y="-16" stroke="none">Zotero</text><text xml:space="preserve" x="0" y="44" stroke="none" text-anchor="middle">Group</text></g></g></g></g></g><g class="node"><g fill="#ffffff" stroke="#000000" stroke-width="4"><circle cx="262" cy="16.282232521504" r="52"/></g><g transform="translate(262 16.282232521504)"><g transform="scale(0.43750056249999997) translate(0 0)"><g transform="translate(0 0)"><g font-family="sans-serif" font-size="50" font-weight="normal" fill="#000000" text-anchor="middle"><text xml:space="preserve" x="0" y="-16" stroke="none">BatLit</text><text xml:space="preserve" x="0" y="44" stroke="none" text-anchor="middle">Version</text></g></g></g></g></g><g class="node"><g fill="#ffffff" stroke="#000000" stroke-width="4"><circle cx="534.7986807454088" cy="-141.21815924143255" r="52"/></g><g transform="translate(534.7986807454088 -141.21815924143255)"><g transform="scale(0.44531305468749993) translate(0 0)"><g transform="translate(0 0)"><g font-family="sans-serif" font-size="50" font-weight="normal" fill="#000000" text-anchor="middle"><text xml:space="preserve" x="0" y="14" stroke="none">batlit.org</text></g></g></g></g></g><g class="node"><g fill="#ffffff" stroke="#000000" stroke-width="4"><circle cx="598.0940196889824" cy="16.282232521504" r="52"/></g><g transform="translate(598.0940196889824 16.282232521504)"><g transform="scale(0.388672486328125) translate(0 0)"><g transform="translate(0 0)"><g font-family="sans-serif" font-size="50" font-weight="normal" fill="#000000" text-anchor="middle"><text xml:space="preserve" x="0" y="-16" stroke="none">BatLit on</text><text xml:space="preserve" x="0" y="44" stroke="none" text-anchor="middle">Zenodo</text></g></g></g></g></g><g class="node"><g fill="#ffffff" stroke="#000000" stroke-width="4"><circle cx="262" cy="-210.8679648858432" r="52"/></g><g transform="translate(262 -210.8679648858432)"><g transform="scale(0.265625734375) translate(0 0)"><g transform="translate(0 0)"><g font-family="sans-serif" font-size="50" font-weight="normal" fill="#000000" text-anchor="middle"><text xml:space="preserve" x="0" y="-76" stroke="none">Collection</text><text xml:space="preserve" x="0" y="-16" stroke="none" text-anchor="middle">of Versioned</text><text xml:space="preserve" x="0" y="44" stroke="none" text-anchor="middle">Digital</text><text xml:space="preserve" x="0" y="104" stroke="none" text-anchor="middle">Resources</text></g></g></g></g></g><g class="node"><g fill="#ffffff" stroke="#000000" stroke-width="4"><circle cx="-74.09401968898237" cy="-210.8679648858432" r="52"/></g><g transform="translate(-74.09401968898237 -210.8679648858432)"><g transform="scale(0.35546939453125004) translate(0 0)"><g transform="translate(0 0)"><g font-family="sans-serif" font-size="50" font-weight="normal" fill="#000000" text-anchor="middle"><text xml:space="preserve" x="0" y="-16" stroke="none">PDFs and</text><text xml:space="preserve" x="0" y="44" stroke="none" text-anchor="middle">metadata</text></g></g></g></g></g><g class="node"><g fill="#ffffff" stroke="#000000" stroke-width="4"><circle cx="553.0659591106861" cy="184.3292423659952" r="52"/></g><g transform="translate(553.0659591106861 184.3292423659952)"><g transform="scale(0.3984381015624999) translate(0 0)"><g transform="translate(0 0)"><g font-family="sans-serif" font-size="50" font-weight="normal" fill="#000000" text-anchor="middle"><text xml:space="preserve" x="0" y="-46" stroke="none">offline</text><text xml:space="preserve" x="0" y="14" stroke="none" text-anchor="middle">storage</text><text xml:space="preserve" x="0" y="74" stroke="none" text-anchor="middle">media</text></g></g></g></g></g></g></svg>