<?xml version="1.0" encoding="UTF-8" standalone="no"?>
<!DOCTYPE svg PUBLIC "-//W3C//DTD SVG 1.1//EN"
 "http://www.w3.org/Graphics/SVG/1.1/DTD/svg11.dtd">
<!-- Generated by graphviz version 2.43.0 (0)
 -->
<!-- Title: batlit Pages: 1 -->
<svg width="737pt" height="72pt"
 viewBox="0.00 0.00 737.45 72.00" xmlns="http://www.w3.org/2000/svg" xmlns:xlink="http://www.w3.org/1999/xlink">
<g id="graph0" class="graph" transform="scale(1 1) rotate(0) translate(4 68)">
<title>batlit</title>
<polygon fill="white" stroke="transparent" points="-4,4 -4,-68 733.45,-68 733.45,4 -4,4"/>
<!-- collect -->
<g id="node1" class="node">
<title>collect</title>
<ellipse fill="none" stroke="black" cx="34.45" cy="-23" rx="34.39" ry="18"/>
<text text-anchor="middle" x="34.45" y="-19.3" font-family="Times,serif" font-size="14.00">collect</text>
</g>
<!-- curate -->
<g id="node2" class="node">
<title>curate</title>
<ellipse fill="none" stroke="black" cx="137.39" cy="-46" rx="32.49" ry="18"/>
<text text-anchor="middle" x="137.39" y="-42.3" font-family="Times,serif" font-size="14.00">curate</text>
</g>
<!-- collect&#45;&gt;curate -->
<g id="edge1" class="edge">
<title>collect&#45;&gt;curate</title>
<path fill="none" stroke="black" d="M66.28,-30.03C76.02,-32.25 86.92,-34.73 97.16,-37.06"/>
<polygon fill="black" stroke="black" points="96.6,-40.52 107.13,-39.33 98.15,-33.7 96.6,-40.52"/>
</g>
<!-- annotate -->
<g id="node3" class="node">
<title>annotate</title>
<ellipse fill="none" stroke="black" cx="246.18" cy="-46" rx="40.09" ry="18"/>
<text text-anchor="middle" x="246.18" y="-42.3" font-family="Times,serif" font-size="14.00">annotate</text>
</g>
<!-- curate&#45;&gt;annotate -->
<g id="edge2" class="edge">
<title>curate&#45;&gt;annotate</title>
<path fill="none" stroke="black" d="M170.14,-46C178.19,-46 187.02,-46 195.71,-46"/>
<polygon fill="black" stroke="black" points="195.79,-49.5 205.79,-46 195.79,-42.5 195.79,-49.5"/>
</g>
<!-- version -->
<g id="node4" class="node">
<title>version</title>
<ellipse fill="none" stroke="black" cx="358.88" cy="-46" rx="36.29" ry="18"/>
<text text-anchor="middle" x="358.88" y="-42.3" font-family="Times,serif" font-size="14.00">version</text>
</g>
<!-- annotate&#45;&gt;version -->
<g id="edge3" class="edge">
<title>annotate&#45;&gt;version</title>
<path fill="none" stroke="black" d="M286.52,-46C294.83,-46 303.66,-46 312.18,-46"/>
<polygon fill="black" stroke="black" points="312.35,-49.5 322.35,-46 312.35,-42.5 312.35,-49.5"/>
</g>
<!-- archive -->
<g id="node5" class="node">
<title>archive</title>
<ellipse fill="none" stroke="black" cx="467.67" cy="-46" rx="36.29" ry="18"/>
<text text-anchor="middle" x="467.67" y="-42.3" font-family="Times,serif" font-size="14.00">archive</text>
</g>
<!-- version&#45;&gt;archive -->
<g id="edge4" class="edge">
<title>version&#45;&gt;archive</title>
<path fill="none" stroke="black" d="M395.44,-46C403.63,-46 412.46,-46 421.02,-46"/>
<polygon fill="black" stroke="black" points="421.27,-49.5 431.27,-46 421.27,-42.5 421.27,-49.5"/>
</g>
<!-- mobilize -->
<g id="node6" class="node">
<title>mobilize</title>
<ellipse fill="none" stroke="black" cx="582.31" cy="-46" rx="42.49" ry="18"/>
<text text-anchor="middle" x="582.31" y="-42.3" font-family="Times,serif" font-size="14.00">mobilize</text>
</g>
<!-- archive&#45;&gt;mobilize -->
<g id="edge5" class="edge">
<title>archive&#45;&gt;mobilize</title>
<path fill="none" stroke="black" d="M504.31,-46C512.47,-46 521.29,-46 529.96,-46"/>
<polygon fill="black" stroke="black" points="530.01,-49.5 540.01,-46 530.01,-42.5 530.01,-49.5"/>
</g>
<!-- review -->
<g id="node7" class="node">
<title>review</title>
<ellipse fill="none" stroke="black" cx="695.01" cy="-23" rx="34.39" ry="18"/>
<text text-anchor="middle" x="695.01" y="-19.3" font-family="Times,serif" font-size="14.00">review</text>
</g>
<!-- mobilize&#45;&gt;review -->
<g id="edge6" class="edge">
<title>mobilize&#45;&gt;review</title>
<path fill="none" stroke="black" d="M620.48,-38.28C630.86,-36.12 642.19,-33.77 652.79,-31.56"/>
<polygon fill="black" stroke="black" points="653.58,-34.97 662.66,-29.51 652.16,-28.12 653.58,-34.97"/>
</g>
<!-- review&#45;&gt;collect -->
<g id="edge7" class="edge">
<title>review&#45;&gt;collect</title>
<path fill="none" stroke="black" d="M662.02,-17.67C618.43,-10.87 537.88,0 468.67,0 245.18,0 245.18,0 245.18,0 186.64,0 119.45,-8.96 77.22,-15.7"/>
<polygon fill="black" stroke="black" points="76.62,-12.25 67.31,-17.31 77.74,-19.16 76.62,-12.25"/>
</g>
</g>
</svg>
